Coordinates
version=1
nRows=12
nColumns=24
inDegrees=yes

Units are S.I. units (second, meters, Newtons, ...)
Angles are in degrees.

endheader
time	pelvis_tilt	pelvis_list	pelvis_rotation	pelvis_tx	pelvis_ty	pelvis_tz	hip_flexion_r	hip_adduction_r	hip_rotation_r	knee_angle_r	ankle_angle_r	subtalar_angle_r	mtp_angle_r	hip_flexion_l	hip_adduction_l	hip_rotation_l	knee_angle_l	ankle_angle_l	subtalar_angle_l	mtp_angle_l	lumbar_extension	lumbar_bending	lumbar_rotation
      1.11700000	     -1.09643234	      2.27534752	     -1.42900734	      0.14205816	      1.06129238	      0.30396793	     23.10195686	     -2.11732849	     -0.43280491	    -66.79276814	      4.40778352	    -12.10484018	      0.29409510	     12.57863607	      5.67014835	     -3.47462078	    -15.52687784	      7.71150128	      1.84045034	      1.20235293	      3.22994208	      0.16513650	     -1.53667989
      1.12116667	     -1.12100106	      2.23985188	     -1.49856067	      0.14724185	      1.06192260	      0.30385524	     23.60605677	     -1.96935082	     -0.20584153	    -66.13768474	      4.78068937	    -12.25108617	      0.25206587	     12.19665437	      5.66338994	     -3.41358402	    -15.33559459	      7.82857933	      1.81304174	      1.19391954	      3.24011736	      0.25032381	     -1.54918167
      1.12533333	     -1.14851089	      2.19091568	     -1.55532799	      0.15242428	      1.06253771	      0.30381166	     24.08283267	     -1.79992133	      0.00194317	    -65.40474361	      5.21471841	    -12.41651168	      0.20515491	     11.82170448	      5.63432983	     -3.39290734	    -15.15627777	      7.96945791	      1.74920780	      1.18331365	      3.23969817	      0.30797877	     -1.55304787
      1.12950000	     -1.18886811	      2.15335862	     -1.61581461	      0.15761157	      1.06311355	      0.30376596	     24.55233657	     -1.64320715	      0.20862867	    -64.60139582	      5.59769716	    -12.55606839	      0.15799024	     11.45511082	      5.61888657	     -3.35834704	    -14.96406430	      8.09467946	      1.68984505	      1.17161075	      3.24302791	      0.35360298	     -1.55294573
      1.13366667	     -1.22535213	      2.10635895	     -1.67427379	      0.16280745	      1.06368528	      0.30372809	     24.98761850	     -1.47552258	      0.40727160	    -63.71592049	      5.93677320	    -12.68347135	      0.11194224	     11.07941636	      5.59269707	     -3.32939786	    -14.76187725	      8.21004797	      1.62475354	      1.15931992	      3.24773815	      0.40537184	     -1.55292624
      1.13783333	     -1.26811441	      2.06401521	     -1.73380823	      0.16800904	      1.06421703	      0.30369314	     25.40466249	     -1.31270625	      0.59961758	    -62.76003537	      6.25116534	    -12.81236682	      0.06328930	     10.70731017	      5.57292838	     -3.29533608	    -14.55134871	      8.32344257	      1.55247262	      1.14554629	      3.25536761	      0.45570477	     -1.55148369
      1.14200000	     -1.35248382	      2.02655012	     -1.76740845	      0.17313258	      1.06464033	      0.30370482	     25.84571466	     -1.15469700	      0.78187109	    -61.73439327	      6.43098613	    -12.88166631	      0.04258081	     10.39349449	      5.55250290	     -3.23344823	    -14.36554313	      8.38372638	      1.51803067	      1.13967201	      3.18970309	      0.44720803	     -1.55459588
      1.14616667	     -1.36217798	      1.99141470	     -1.84699613	      0.17847150	      1.06520268	      0.30366592	     26.15990727	     -1.00127977	      0.96521550	    -60.62513515	      6.73622555	    -13.05832174	     -0.00491697	      9.95783613	      5.54554212	     -3.21390451	    -14.10566062	      8.51759695	      1.41358020	      1.12531763	      3.30439242	      0.53385184	     -1.55584532
      1.15033333	     -1.45681501	      1.96189709	     -1.88678898	      0.18360666	      1.06554617	      0.30371168	     26.55834547	     -0.84822799	      1.14295920	    -59.46303265	      6.89937517	    -13.14634967	     -0.02904664	      9.65057840	      5.53173332	     -3.15512922	    -13.90969305	      8.58156394	      1.36376527	      1.11792160	      3.24306111	      0.52382339	     -1.55808925
      1.15450000	     -1.46404140	      1.91866852	     -1.95040757	      0.18901106	      1.06607482	      0.30367009	     26.80168048	     -0.69583487	      1.29177564	    -58.20226124	      7.10691263	    -13.36422028	     -0.08736581	      9.20405255	      5.51773419	     -3.13244740	    -13.63999286	      8.70723115	      1.23454262	      1.09904152	      3.36861203	      0.62095484	     -1.55992866
      1.15866667	     -1.50809121	      1.88010428	     -1.99719922	      0.19431625	      1.06648740	      0.30367302	     27.06651322	     -0.54486932	      1.43314171	    -56.87988990	      7.21791560	    -13.56503156	     -0.14736701	      8.81273223	      5.50547413	     -3.07389074	    -13.39274185	      8.79379813	      1.12496033	      1.07903647	      3.39738032	      0.66229750	     -1.56226839
      1.16283333	     -1.48611116	      1.82268545	     -2.01613901	      0.19957872	      1.06697677	      0.30363944	     27.22488346	     -0.39323730	      1.52417225	    -55.47097718	      7.16163703	    -14.01436019	     -0.31306290	      8.35323647	      5.47895329	     -2.97968192	    -13.15121781	      8.87538502	      0.91846158	      1.02119789	      3.25550240	      0.81903932	     -1.59015724
